<svg width="213" height="48" viewBox="0 0 213 48" fill="none" xmlns="http://www.w3.org/2000/svg">
<path d="M60.0156 25.873H60.6353C61.2065 25.873 61.6108 25.7676 61.8481 25.5566C62.0854 25.3457 62.2041 25.0029 62.2041 24.5283C62.2041 24.0625 62.0942 23.7373 61.8745 23.5527C61.6548 23.3594 61.2417 23.2627 60.6353 23.2627H59.1323V37H53.3711V17.752H60.4243C61.7427 17.752 62.7446 17.8574 63.4302 18.0684C64.1157 18.2705 64.7793 18.6045 65.4209 19.0703C66.2559 19.6855 66.9019 20.4458 67.3589 21.3511C67.8159 22.2563 68.0444 23.2231 68.0444 24.2515C68.0444 25.2358 67.8247 26.1323 67.3853 26.9409C66.9458 27.7495 66.2646 28.5098 65.3418 29.2217L68.6904 37H62.6392L60.0156 30.9487V25.873ZM83.1729 37H78.0313V31.4893C78.0313 30.1885 77.8731 29.2788 77.5567 28.7603C77.2403 28.2417 76.7173 27.9824 75.9878 27.9824C75.4341 27.9824 74.9595 28.1802 74.564 28.5757C74.1773 28.9624 73.9839 29.4326 73.9839 29.9863C73.9839 30.5576 74.1729 31.0322 74.5508 31.4102C74.9375 31.7881 75.4165 31.9771 75.9878 31.9771C76.1284 31.9771 76.2822 31.9595 76.4492 31.9243C76.6162 31.8804 76.8052 31.8188 77.0161 31.7397V37.0791L76.9238 37.0923C76.4492 37.1187 76.1109 37.1318 75.9087 37.1318C73.9224 37.1318 72.2393 36.4419 70.8594 35.062C69.4883 33.6821 68.8028 31.9902 68.8028 29.9863C68.8028 29.0371 68.9785 28.1318 69.3301 27.2705C69.6817 26.4092 70.1914 25.6489 70.8594 24.9897C71.5362 24.3042 72.3096 23.7812 73.1797 23.4209C74.0498 23.0605 74.9683 22.8804 75.9351 22.8804C77.3589 22.8804 78.6377 23.2363 79.7715 23.9482C80.9053 24.6514 81.7578 25.627 82.3291 26.875C82.6192 27.5342 82.8301 28.2153 82.9619 28.9185C83.1026 29.6128 83.1729 30.4785 83.1729 31.5156V32.5176V37ZM98.9078 17.752V28.7339C98.9078 29.5425 98.877 30.1841 98.8155 30.6587C98.7627 31.1333 98.6748 31.5815 98.5518 32.0034C98.0684 33.6821 97.2159 35.0005 95.9942 35.9585C94.7813 36.9077 93.3399 37.3823 91.67 37.3823C90.712 37.3823 89.7979 37.1978 88.9278 36.8286C88.0577 36.4595 87.2798 35.9233 86.5943 35.2202C85.9263 34.5435 85.4165 33.77 85.065 32.8999C84.7134 32.021 84.5376 31.1025 84.5376 30.1445C84.5376 28.0967 85.2232 26.3696 86.5943 24.9634C87.9654 23.5571 89.6485 22.854 91.6436 22.854C91.8457 22.854 92.1885 22.8716 92.6719 22.9067C92.6983 22.9067 92.7246 22.9067 92.751 22.9067V28.3647C92.4961 28.2593 92.2896 28.189 92.1314 28.1538C91.982 28.1099 91.8545 28.0879 91.7491 28.0879C91.1602 28.0879 90.6724 28.2856 90.2857 28.6812C89.9078 29.0679 89.7188 29.5557 89.7188 30.1445C89.7188 30.6895 89.9165 31.1641 90.312 31.5684C90.7076 31.9639 91.1778 32.1616 91.7227 32.1616C92.4522 32.1616 92.9751 31.8979 93.2915 31.3706C93.6079 30.8433 93.7662 29.9116 93.7662 28.5757V17.752H98.9078ZM105.889 37H100.76V23.2627H105.889V37ZM100.734 19.3735C100.734 18.644 100.984 18.0244 101.485 17.5146C101.995 17.0049 102.606 16.75 103.318 16.75C104.047 16.75 104.667 17.0049 105.177 17.5146C105.687 18.0244 105.941 18.644 105.941 19.3735C105.941 20.0854 105.687 20.6963 105.177 21.2061C104.667 21.707 104.047 21.9575 103.318 21.9575C102.606 21.9575 101.995 21.707 101.485 21.2061C100.984 20.6963 100.734 20.0854 100.734 19.3735ZM112.593 30.1445C112.593 30.6543 112.773 31.0938 113.133 31.4629C113.503 31.8232 113.946 32.0034 114.465 32.0034C114.975 32.0034 115.414 31.8232 115.783 31.4629C116.161 31.0938 116.35 30.6543 116.35 30.1445C116.35 29.626 116.161 29.1821 115.783 28.813C115.414 28.4351 114.975 28.2461 114.465 28.2461C113.946 28.2461 113.503 28.4307 113.133 28.7998C112.773 29.1689 112.593 29.6172 112.593 30.1445ZM107.227 30.1445C107.227 29.4326 107.328 28.7383 107.53 28.0615C107.741 27.3848 108.045 26.7476 108.44 26.1499C109.126 25.1128 109.996 24.3086 111.05 23.7373C112.105 23.166 113.243 22.8804 114.465 22.8804C115.414 22.8804 116.333 23.0693 117.22 23.4473C118.108 23.8164 118.899 24.3481 119.593 25.0425C120.279 25.728 120.806 26.5103 121.175 27.3892C121.545 28.2681 121.729 29.1865 121.729 30.1445C121.729 31.1113 121.545 32.0298 121.175 32.8999C120.815 33.77 120.288 34.5522 119.593 35.2466C118.908 35.9321 118.121 36.4595 117.233 36.8286C116.346 37.1978 115.423 37.3823 114.465 37.3823C113.498 37.3823 112.58 37.2021 111.71 36.8418C110.839 36.4727 110.057 35.9409 109.363 35.2466C108.669 34.5522 108.137 33.77 107.768 32.8999C107.407 32.0298 107.227 31.1113 107.227 30.1445ZM123.318 37V26.7432C123.318 25.6709 123.344 24.8623 123.397 24.3174C123.459 23.7725 123.551 23.2583 123.674 22.7749C124.113 21.061 124.909 19.7339 126.06 18.7935C127.22 17.8442 128.622 17.3696 130.266 17.3696C131.4 17.3696 132.45 17.6289 133.417 18.1475C134.383 18.666 135.179 19.3955 135.803 20.3359C136.295 21.1006 136.651 21.9487 136.871 22.8804C137.09 23.812 137.2 25.0996 137.2 26.7432V37H131.558V25.3589C131.558 24.603 131.461 24.0669 131.268 23.7505C131.083 23.4253 130.775 23.2627 130.345 23.2627C129.932 23.2627 129.637 23.4077 129.462 23.6978C129.295 23.9878 129.211 24.5415 129.211 25.3589V27.3892H130.701V32.4912H129.211V37H123.318ZM144.498 37H139.369V23.2627H144.498V37ZM139.343 19.3735C139.343 18.644 139.593 18.0244 140.094 17.5146C140.604 17.0049 141.215 16.75 141.927 16.75C142.656 16.75 143.276 17.0049 143.786 17.5146C144.296 18.0244 144.55 18.644 144.55 19.3735C144.55 20.0854 144.296 20.6963 143.786 21.2061C143.276 21.707 142.656 21.9575 141.927 21.9575C141.215 21.9575 140.604 21.707 140.094 21.2061C139.593 20.6963 139.343 20.0854 139.343 19.3735ZM160.259 17.752V28.7339C160.259 29.5425 160.228 30.1841 160.167 30.6587C160.114 31.1333 160.026 31.5815 159.903 32.0034C159.42 33.6821 158.567 35.0005 157.345 35.9585C156.132 36.9077 154.691 37.3823 153.021 37.3823C152.063 37.3823 151.149 37.1978 150.279 36.8286C149.409 36.4595 148.631 35.9233 147.945 35.2202C147.277 34.5435 146.768 33.77 146.416 32.8999C146.065 32.021 145.889 31.1025 145.889 30.1445C145.889 28.0967 146.574 26.3696 147.945 24.9634C149.317 23.5571 151 22.854 152.995 22.854C153.197 22.854 153.54 22.8716 154.023 22.9067C154.049 22.9067 154.076 22.9067 154.102 22.9067V28.3647C153.847 28.2593 153.641 28.189 153.483 28.1538C153.333 28.1099 153.206 28.0879 153.1 28.0879C152.511 28.0879 152.024 28.2856 151.637 28.6812C151.259 29.0679 151.07 29.5557 151.07 30.1445C151.07 30.6895 151.268 31.1641 151.663 31.5684C152.059 31.9639 152.529 32.1616 153.074 32.1616C153.803 32.1616 154.326 31.8979 154.643 31.3706C154.959 30.8433 155.117 29.9116 155.117 28.5757V17.752H160.259ZM173.528 35.6816C172.808 36.2529 172.061 36.6792 171.287 36.9604C170.514 37.2417 169.688 37.3823 168.809 37.3823C168.106 37.3823 167.411 37.2769 166.726 37.0659C166.04 36.855 165.394 36.543 164.788 36.1299C163.768 35.4619 162.977 34.605 162.415 33.5591C161.852 32.5044 161.571 31.3662 161.571 30.1445C161.571 29.1865 161.756 28.2681 162.125 27.3892C162.494 26.5015 163.021 25.7192 163.707 25.0425C164.401 24.3394 165.188 23.8032 166.067 23.4341C166.945 23.0649 167.86 22.8804 168.809 22.8804C170.927 22.8804 172.667 23.6055 174.029 25.0557C175.392 26.4971 176.073 28.3647 176.073 30.6587V30.9487H168.479C168.242 30.9487 168.066 30.8477 167.952 30.6455C167.838 30.4434 167.78 30.1226 167.78 29.6831C167.78 29.2437 167.838 28.9185 167.952 28.7075C168.066 28.4966 168.242 28.3911 168.479 28.3911H170.773V28.3384C170.773 27.8813 170.611 27.521 170.285 27.2573C169.969 26.9849 169.538 26.8486 168.993 26.8486C168.308 26.8486 167.754 27.1255 167.332 27.6792C166.91 28.2329 166.699 28.9712 166.699 29.894C166.699 30.8608 166.893 31.6167 167.279 32.1616C167.666 32.7065 168.202 32.979 168.888 32.979C169.213 32.979 169.538 32.8911 169.863 32.7153C170.189 32.5308 170.422 32.3022 170.562 32.0298L173.528 35.6816ZM182.342 37H177.214V17.752H182.342V37ZM194.188 31.4893H197.418V37H184.867L191.749 25.4116C191.845 25.2446 191.92 25.0513 191.973 24.8315C192.026 24.6118 192.052 24.3921 192.052 24.1724C192.052 23.6538 191.907 23.2583 191.617 22.9858C191.327 22.7134 190.905 22.5771 190.351 22.5771C189.85 22.5771 189.442 22.7354 189.125 23.0518C188.809 23.3682 188.651 23.7681 188.651 24.2515C188.651 24.5327 188.703 24.7744 188.809 24.9766C188.914 25.1699 189.086 25.3457 189.323 25.5039L186.897 29.6831C185.781 29.1118 184.942 28.3735 184.379 27.4683C183.825 26.5542 183.549 25.4731 183.549 24.2251C183.549 22.2739 184.217 20.6436 185.552 19.334C186.888 18.0244 188.576 17.3696 190.615 17.3696C192.557 17.3696 194.179 17.998 195.48 19.2549C196.789 20.5117 197.444 22.0454 197.444 23.856C197.444 24.48 197.347 25.104 197.154 25.728C196.961 26.3433 196.574 27.1738 195.994 28.2197L194.188 31.4893ZM208.789 31.4893H212.019V37H199.468L206.35 25.4116C206.447 25.2446 206.521 25.0513 206.574 24.8315C206.627 24.6118 206.653 24.3921 206.653 24.1724C206.653 23.6538 206.508 23.2583 206.218 22.9858C205.928 22.7134 205.506 22.5771 204.952 22.5771C204.451 22.5771 204.043 22.7354 203.726 23.0518C203.41 23.3682 203.252 23.7681 203.252 24.2515C203.252 24.5327 203.304 24.7744 203.41 24.9766C203.515 25.1699 203.687 25.3457 203.924 25.5039L201.498 29.6831C200.382 29.1118 199.543 28.3735 198.98 27.4683C198.426 26.5542 198.15 25.4731 198.15 24.2251C198.15 22.2739 198.818 20.6436 200.154 19.334C201.489 18.0244 203.177 17.3696 205.216 17.3696C207.158 17.3696 208.78 17.998 210.081 19.2549C211.39 20.5117 212.045 22.0454 212.045 23.856C212.045 24.48 211.948 25.104 211.755 25.728C211.562 26.3433 211.175 27.1738 210.595 28.2197L208.789 31.4893Z" fill="#010043"/>
<path fill-rule="evenodd" clip-rule="evenodd" d="M1.28172 22.33C2.11711 20.8689 3.3176 19.6498 4.76566 18.7921L5.55585 20.126C4.33879 20.847 3.32981 21.8716 2.62769 23.0996C1.92574 24.3273 1.55455 25.7162 1.55044 27.1304V27.6552C1.55507 29.077 1.93064 30.4731 2.64004 31.7053C3.34965 32.9379 4.36869 33.9639 5.59641 34.6819L4.81371 36.0203C3.35303 35.166 2.14062 33.9453 1.29637 32.4789C0.452114 31.0124 0.00526446 29.351 3.74935e-06 27.6589L0 27.6564V27.1293L3.01004e-06 27.1271C0.00467586 25.4441 0.446328 23.7911 1.28172 22.33Z" fill="#FF1A9F"/>
<path fill-rule="evenodd" clip-rule="evenodd" d="M5.7967 22.972L4.05799 24.7107L3.58813 24.2409L5.32685 22.5022L5.7967 22.972Z" fill="#FF1A9F"/>
<path d="M5.56147 23.0671C5.74373 23.0671 5.89149 22.9194 5.89149 22.7371C5.89149 22.5548 5.74373 22.4071 5.56147 22.4071C5.3792 22.4071 5.23145 22.5548 5.23145 22.7371C5.23145 22.9194 5.3792 23.0671 5.56147 23.0671Z" fill="#FF1A9F"/>
<path d="M3.79223 24.8412C3.97817 24.8412 4.1289 24.6905 4.1289 24.5046C4.1289 24.3186 3.97817 24.1679 3.79223 24.1679C3.6063 24.1679 3.45557 24.3186 3.45557 24.5046C3.45557 24.6905 3.6063 24.8412 3.79223 24.8412Z" fill="#FF1A9F"/>
<path fill-rule="evenodd" clip-rule="evenodd" d="M5.7967 25.5856L3.29163 28.0907L2.82178 27.6209L5.32685 25.1158L5.7967 25.5856Z" fill="#FF1A9F"/>
<path d="M5.56147 25.6807C5.74373 25.6807 5.89149 25.5329 5.89149 25.3507C5.89149 25.1684 5.74373 25.0206 5.56147 25.0206C5.3792 25.0206 5.23145 25.1684 5.23145 25.3507C5.23145 25.5329 5.3792 25.6807 5.56147 25.6807Z" fill="#FF1A9F"/>
<path d="M3.05658 28.1858C3.23885 28.1858 3.38661 28.038 3.38661 27.8558C3.38661 27.6735 3.23885 27.5258 3.05658 27.5258C2.87432 27.5258 2.72656 27.6735 2.72656 27.8558C2.72656 28.038 2.87432 28.1858 3.05658 28.1858Z" fill="#FF1A9F"/>
<path fill-rule="evenodd" clip-rule="evenodd" d="M5.7967 28.1882L4.02698 29.9579L3.55713 29.4881L5.32685 27.7184L5.7967 28.1882Z" fill="#FF1A9F"/>
<path d="M5.56147 28.2832C5.74373 28.2832 5.89149 28.1354 5.89149 27.9532C5.89149 27.7709 5.74373 27.6231 5.56147 27.6231C5.3792 27.6231 5.23145 27.7709 5.23145 27.9532C5.23145 28.1354 5.3792 28.2832 5.56147 28.2832Z" fill="#FF1A9F"/>
<path d="M3.79194 30.053C3.9742 30.053 4.12196 29.9052 4.12196 29.723C4.12196 29.5407 3.9742 29.3929 3.79194 29.3929C3.60967 29.3929 3.46191 29.5407 3.46191 29.723C3.46191 29.9052 3.60967 30.053 3.79194 30.053Z" fill="#FF1A9F"/>
<path fill-rule="evenodd" clip-rule="evenodd" d="M5.79623 30.9457L4.91248 31.8294L4.44263 31.3596L5.32638 30.4758L5.79623 30.9457Z" fill="#FF1A9F"/>
<path d="M5.56147 31.0409C5.74373 31.0409 5.89149 30.8931 5.89149 30.7109C5.89149 30.5286 5.74373 30.3808 5.56147 30.3808C5.3792 30.3808 5.23145 30.5286 5.23145 30.7109C5.23145 30.8931 5.3792 31.0409 5.56147 31.0409Z" fill="#FF1A9F"/>
<path d="M4.69355 31.909C4.87581 31.909 5.02357 31.7613 5.02357 31.579C5.02357 31.3967 4.87581 31.249 4.69355 31.249C4.51128 31.249 4.36353 31.3967 4.36353 31.579C4.36353 31.7613 4.51128 31.909 4.69355 31.909Z" fill="#FF1A9F"/>
<path d="M5.15217 20.2342C5.58032 20.2342 5.9274 19.8871 5.9274 19.459C5.9274 19.0308 5.58032 18.6837 5.15217 18.6837C4.72403 18.6837 4.37695 19.0308 4.37695 19.459C4.37695 19.8871 4.72403 20.2342 5.15217 20.2342Z" fill="#FF1A9F"/>
<path d="M5.15217 36.1262C5.58032 36.1262 5.9274 35.7792 5.9274 35.351C5.9274 34.9229 5.58032 34.5758 5.15217 34.5758C4.72403 34.5758 4.37695 34.9229 4.37695 35.351C4.37695 35.7792 4.72403 36.1262 5.15217 36.1262Z" fill="#FF1A9F"/>
<path fill-rule="evenodd" clip-rule="evenodd" d="M47.1956 23.1005C46.4949 21.8725 45.4875 20.8474 44.272 20.1255L45.0637 18.7924C46.51 19.6514 47.7086 20.871 48.5422 22.3321C49.3759 23.7931 49.8161 25.4454 49.8197 27.1275L49.8197 27.1292L49.8197 27.6564L49.8197 27.6582C49.8157 29.3485 49.3712 31.0086 48.5301 32.4748C47.689 33.941 46.4802 35.1626 45.0231 36.0193L44.2373 34.6827C45.4622 33.9626 46.4782 32.9357 47.1853 31.7033C47.8922 30.4711 48.2658 29.076 48.2693 27.6554V27.1302C48.2661 25.7167 47.8961 24.3282 47.1956 23.1005Z" fill="#FF1A9F"/>
<path fill-rule="evenodd" clip-rule="evenodd" d="M43.8975 31.344L45.6362 29.6075L46.1057 30.0777L44.367 31.8142L43.8975 31.344Z" fill="#FF1A9F"/>
<path d="M44.1323 31.909C44.3145 31.909 44.4623 31.7613 44.4623 31.579C44.4623 31.3967 44.3145 31.249 44.1323 31.249C43.95 31.249 43.8022 31.3967 43.8022 31.579C43.8022 31.7613 43.95 31.909 44.1323 31.909Z" fill="#FF1A9F"/>
<path d="M45.9019 30.1504C46.0878 30.1504 46.2385 29.9996 46.2385 29.8137C46.2385 29.6278 46.0878 29.477 45.9019 29.477C45.7159 29.477 45.5652 29.6278 45.5652 29.8137C45.5652 29.9996 45.7159 30.1504 45.9019 30.1504Z" fill="#FF1A9F"/>
<path fill-rule="evenodd" clip-rule="evenodd" d="M43.8975 28.7882L46.4025 26.2831L46.8724 26.7529L44.3673 29.258L43.8975 28.7882Z" fill="#FF1A9F"/>
<path d="M44.1323 29.353C44.3145 29.353 44.4623 29.2052 44.4623 29.023C44.4623 28.8407 44.3145 28.6929 44.1323 28.6929C43.95 28.6929 43.8022 28.8407 43.8022 29.023C43.8022 29.2052 43.95 29.353 44.1323 29.353Z" fill="#FF1A9F"/>
<path d="M46.6371 26.848C46.8194 26.848 46.9672 26.7002 46.9672 26.518C46.9672 26.3357 46.8194 26.1879 46.6371 26.1879C46.4549 26.1879 46.3071 26.3357 46.3071 26.518C46.3071 26.7002 46.4549 26.848 46.6371 26.848Z" fill="#FF1A9F"/>
<path fill-rule="evenodd" clip-rule="evenodd" d="M43.8975 26.1302L45.6672 24.3605L46.137 24.8303L44.3673 26.6L43.8975 26.1302Z" fill="#FF1A9F"/>
<path d="M44.1323 26.6952C44.3145 26.6952 44.4623 26.5474 44.4623 26.3651C44.4623 26.1829 44.3145 26.0351 44.1323 26.0351C43.95 26.0351 43.8022 26.1829 43.8022 26.3651C43.8022 26.5474 43.95 26.6952 44.1323 26.6952Z" fill="#FF1A9F"/>
<path d="M45.9018 24.9255C46.0841 24.9255 46.2318 24.7777 46.2318 24.5954C46.2318 24.4132 46.0841 24.2654 45.9018 24.2654C45.7195 24.2654 45.5718 24.4132 45.5718 24.5954C45.5718 24.7777 45.7195 24.9255 45.9018 24.9255Z" fill="#FF1A9F"/>
<path fill-rule="evenodd" clip-rule="evenodd" d="M43.897 23.3729L44.7807 22.4869L45.2512 22.9562L44.3674 23.8421L43.897 23.3729Z" fill="#FF1A9F"/>
<path d="M44.1323 23.9375C44.3145 23.9375 44.4623 23.7898 44.4623 23.6075C44.4623 23.4252 44.3145 23.2775 44.1323 23.2775C43.95 23.2775 43.8022 23.4252 43.8022 23.6075C43.8022 23.7898 43.95 23.9375 44.1323 23.9375Z" fill="#FF1A9F"/>
<path d="M45.0002 23.0671C45.1825 23.0671 45.3302 22.9194 45.3302 22.7371C45.3302 22.5548 45.1825 22.4071 45.0002 22.4071C44.8179 22.4071 44.6702 22.5548 44.6702 22.7371C44.6702 22.9194 44.8179 23.0671 45.0002 23.0671Z" fill="#FF1A9F"/>
<path d="M44.6751 20.2342C45.1033 20.2342 45.4503 19.8871 45.4503 19.459C45.4503 19.0308 45.1033 18.6837 44.6751 18.6837C44.247 18.6837 43.8999 19.0308 43.8999 19.459C43.8999 19.8871 44.247 20.2342 44.6751 20.2342Z" fill="#FF1A9F"/>
<path d="M44.6751 36.1262C45.1033 36.1262 45.4503 35.7792 45.4503 35.351C45.4503 34.9229 45.1033 34.5758 44.6751 34.5758C44.247 34.5758 43.8999 34.9229 43.8999 35.351C43.8999 35.7792 44.247 36.1262 44.6751 36.1262Z" fill="#FF1A9F"/>
<path fill-rule="evenodd" clip-rule="evenodd" d="M9.47521 19.8443C9.29172 19.8443 9.14297 19.9931 9.14297 20.1766V34.6289C9.14297 34.8124 9.29172 34.9611 9.47521 34.9611H10.4985C10.682 34.9611 10.8307 34.8124 10.8307 34.6289V20.1766C10.8307 19.9931 10.682 19.8443 10.4985 19.8443H9.47521ZM7.59253 20.1766C7.59253 19.1368 8.43543 18.2939 9.47521 18.2939H10.4985C11.5383 18.2939 12.3812 19.1368 12.3812 20.1766V34.6289C12.3812 35.6687 11.5383 36.5116 10.4985 36.5116H9.47521C8.43543 36.5116 7.59253 35.6687 7.59253 34.6289V20.1766Z" fill="#FF1A9F"/>
<path fill-rule="evenodd" clip-rule="evenodd" d="M26.8016 45.0029C26.813 44.8198 26.6739 44.662 26.4907 44.6506L23.3804 44.456C23.1973 44.4445 23.0396 44.5837 23.0281 44.7668L22.9642 45.7881C22.9527 45.9712 23.0919 46.129 23.275 46.1404L26.3853 46.335C26.5685 46.3465 26.7262 46.2073 26.7377 46.0242L26.8016 45.0029ZM26.5875 43.1031C27.6253 43.1681 28.4139 44.062 28.349 45.0997L28.2851 46.121C28.2202 47.1588 27.3263 47.9474 26.2885 47.8825L23.1782 47.6879C22.1405 47.6229 21.3519 46.729 21.4168 45.6913L21.4807 44.67C21.5456 43.6323 22.4395 42.8436 23.4772 42.9086L26.5875 43.1031Z" fill="#FF1A9F"/>
<path fill-rule="evenodd" clip-rule="evenodd" d="M39.2836 19.8443C39.1001 19.8443 38.9513 19.9931 38.9513 20.1766V34.6289C38.9513 34.8124 39.1001 34.9611 39.2836 34.9611H40.3068C40.4903 34.9611 40.6391 34.8124 40.6391 34.6289V20.1766C40.6391 19.9931 40.4903 19.8443 40.3068 19.8443H39.2836ZM37.4009 20.1766C37.4009 19.1368 38.2438 18.2939 39.2836 18.2939H40.3068C41.3466 18.2939 42.1895 19.1368 42.1895 20.1766V34.6289C42.1895 35.6687 41.3466 36.5116 40.3068 36.5116H39.2836C38.2438 36.5116 37.4009 35.6687 37.4009 34.6289V20.1766Z" fill="#FF1A9F"/>
<path fill-rule="evenodd" clip-rule="evenodd" d="M10.3468 35.4077C11.4637 37.773 13.1405 39.8304 15.232 41.4016C17.3234 42.9727 19.7664 44.0103 22.3493 44.4243L22.1039 45.9552C19.2721 45.5013 16.5937 44.3638 14.3007 42.6412C12.0078 40.9187 10.1694 38.663 8.94482 36.0697L10.3468 35.4077Z" fill="#FF1A9F"/>
<path fill-rule="evenodd" clip-rule="evenodd" d="M35.0338 5.15589C32.1628 2.81961 28.5733 1.5461 24.8719 1.55058C21.1704 1.55505 17.584 2.83722 14.7187 5.18043C11.8533 7.52364 9.88479 10.7842 9.14568 14.4111L7.62646 14.1015C8.43688 10.1247 10.5954 6.54951 13.7372 3.98021C16.879 1.41092 20.8114 0.00503793 24.87 0.000134938C28.9286 -0.00476805 32.8644 1.39161 36.0124 3.9533C39.1604 6.515 41.3276 10.0849 42.1476 14.0598L40.6291 14.3731C39.8812 10.748 37.9048 7.49216 35.0338 5.15589Z" fill="#0293F5"/>
<path d="M8.36775 15.1001C8.79589 15.1001 9.14297 14.753 9.14297 14.3249C9.14297 13.8968 8.79589 13.5497 8.36775 13.5497C7.93961 13.5497 7.59253 13.8968 7.59253 14.3249C7.59253 14.753 7.93961 15.1001 8.36775 15.1001Z" fill="#0293F5"/>
<path d="M41.4171 15.1001C41.8452 15.1001 42.1923 14.753 42.1923 14.3249C42.1923 13.8968 41.8452 13.5497 41.4171 13.5497C40.9889 13.5497 40.6418 13.8968 40.6418 14.3249C40.6418 14.753 40.9889 15.1001 41.4171 15.1001Z" fill="#0293F5"/>
</svg>
